<svg id="Layer_1" data-name="Layer 1" xmlns="http://www.w3.org/2000/svg" viewBox="0 0 496.458 426.229"><defs><style>.cls-1,.cls-2{fill:none;stroke:#000;stroke-miterlimit:10;}.cls-1{stroke-width:24px;}.cls-2{stroke-width:2px;}</style></defs><path class="cls-1" d="M277.75,394.857c-.214.07-.512.287-.725.123-6.828-5.261-91.828-66.18-95.275-69.123l127-50.5c16.246-19.5,29.4-33.683,36-40a39.376,39.376,0,0,1,12.5-8.5,47.048,47.048,0,0,1,9-2.5s7.844-1.777,20.5-9.5c13.754-8.393,27.233-27.788,34-38,13.279-20.036,26.956-39.81,40-60,3.292-5.095,9.144-14.184,17.5-14.5,7.476-.282,14.434,6.605,17,9a36.811,36.811,0,0,1,8,11c21.991,44.632,32.987,66.947,35.5,75,10.735,34.4,36.979,121.511,90.5,243-1.729-1.021-4.3-2.6-7.309-4.68-10.363-7.172-16.064-13.513-24.51-21.958-9.764-9.762-14.646-14.643-20.681-19.4-10.82-8.537-17.876-14.1-28.6-15.83-10.753-1.731-19.413,1.334-25.021,3.319-9.068,3.21-17.144,8.31-31.4,21.958-9.7,9.283-13.471,14.109-29.107,31.915-11.94,13.6-22.954,25.831-37.021,39.319-2.312,2.217-13.325,12.661-26.3,19.4a99.218,99.218,0,0,1-14.808,6.128,87.608,87.608,0,0,1-10.468,2.553l-5.362-12.511c-6.734-16.139-11.9-28.6-15.064-36.255-4.5-10.89-7.133-17.293-11.745-26.3a145.017,145.017,0,0,0-16.34-25.277c-5.431-6.719-8.461-9.164-11.745-10.978-3.059-1.691-10.044-5.551-17.617-3.83-3.3.749-4.346,2.019-13.787,5.362C282.367,393.294,280.045,394.116,277.75,394.857Z" transform="translate(-158.822 -90.349)"/><path class="cls-2" d="M275.388,398.06" transform="translate(-158.822 -90.349)"/><line class="cls-1" x1="153.035" y1="186.774" x2="207.801" y2="227.753"/><path class="cls-1" d="M478.835,104.783a58.307,58.307,0,0,0-5.362,5.362,62.5,62.5,0,0,0-12.638,22.978c-8.464,26.933-23.9,51.182-34.468,77.362-3.833,9.5-27.679,67.7-69.319,127.149a570.9,570.9,0,0,1-39.83,50.553" transform="translate(-158.822 -90.349)"/></svg>