<?xml version="1.0" encoding="UTF-8" standalone="no"?>
<!DOCTYPE svg PUBLIC "-//W3C//DTD SVG 1.1//EN" "http://www.w3.org/Graphics/SVG/1.1/DTD/svg11.dtd">
<svg width="100%" height="100%" viewBox="0 0 2475 2500" version="1.1" xmlns="http://www.w3.org/2000/svg" xml:space="preserve" style="fill-rule:evenodd;clip-rule:evenodd;stroke-linejoin:round;stroke-miterlimit:2;">
    <path d="M2305.18,1046.98L287.756,16.55C287.756,16.55 155.925,0 101.549,35.017C41.59,73.625 20.842,202.769 20.842,202.769L20.842,2263.64C20.842,2263.64 39.426,2417.18 101.537,2456.08C171.663,2500 337.423,2437.45 337.423,2437.45L2323.8,1419.43C2323.8,1419.43 2454.16,1338.73 2454.16,1227C2454.16,1115.26 2305.18,1046.98 2305.18,1046.98Z" style="fill-rule:nonzero;"/>
    <path d="M790.563,1133.74L790.563,897.857L958.168,897.857L958.168,1133.74L1200.26,1133.74L1200.26,1301.34L958.168,1301.34L958.168,1531.02L790.563,1531.02L790.563,1301.34L542.264,1301.34L542.264,1133.74L790.563,1133.74Z" style="fill:white;fill-rule:nonzero;"/>
</svg>
