<svg id="Bold" height="512" viewBox="0 0 24 24" width="512" xmlns="http://www.w3.org/2000/svg"><path d="m23.25 24h-9.5c-.414 0-.75-.336-.75-.75s.336-.75.75-.75h9.5c.414 0 .75.336.75.75s-.336.75-.75.75z"/><path d="m15.879 11.75c-.192 0-.384-.073-.53-.22l-6.5-6.5c-.293-.293-.293-.768 0-1.061s.768-.293 1.061 0l6.5 6.5c.293.293.293.768 0 1.061-.147.147-.339.22-.531.22z"/><path d="m18.624 10.252c-.192 0-.384-.073-.53-.22l-6.266-6.265c-.293-.293-.293-.768 0-1.061s.768-.293 1.061 0l6.266 6.265c.293.293.293.768 0 1.061-.147.147-.339.22-.531.22z"/><path d="m6.75 9h-2.5c-.414 0-.75-.336-.75-.75v-3.75c0-.414.336-.75.75-.75h2.5c.414 0 .75.336.75.75v3.75c0 .414-.336.75-.75.75zm-1.75-1.5h1v-2.25h-1z"/><path d="m22.5 24h-8c-.414 0-.75-.336-.75-.75 0-2.619 2.131-4.75 4.75-4.75s4.75 2.131 4.75 4.75c0 .414-.336.75-.75.75zm-7.163-1.5h6.326c-.34-1.432-1.629-2.5-3.163-2.5s-2.823 1.068-3.163 2.5z"/><path d="m10.5 0h-6c-1.379 0-2.5 1.122-2.5 2.5s1.121 2.5 2.5 2.5h6c1.379 0 2.5-1.122 2.5-2.5s-1.121-2.5-2.5-2.5z"/><path d="m21.989 20.053c.002-.019.011-.034.011-.053v-7.417c0-1.976-1.57-3.583-3.5-3.583s-3.5 1.607-3.5 3.583v7.417c0 .019.009.034.011.053 2.062-1.251 5.087-1.116 6.978 0z"/><path d="m7.75 7.5h-4.5c-.414 0-.75.336-.75.75v2.5c0 .414.336.75.75.75h4.5c.414 0 .75-.336.75-.75v-2.5c0-.414-.336-.75-.75-.75z"/><path d="m3.5 16h-1c-.257 0-.495-.131-.633-.347l-1.75-2.75c-.15-.237-.156-.538-.015-.781l1.75-3c.134-.23.381-.372.648-.372h.75c.414 0 .75.336.75.75s-.336.75-.75.75h-.319l-1.303 2.233 1.284 2.017h.588c.414 0 .75.336.75.75s-.336.75-.75.75z"/><path d="m8.5 16h-1c-.414 0-.75-.336-.75-.75s.336-.75.75-.75h.588l1.284-2.017-1.303-2.233h-.319c-.414 0-.75-.336-.75-.75s.336-.75.75-.75h.75c.267 0 .514.142.647.372l1.75 3c.142.243.136.544-.015.781l-1.75 2.75c-.137.216-.375.347-.632.347z"/></svg>