<svg width="100%" height="100%" viewBox="0 0 301 262" version="1.1" xmlns="http://www.w3.org/2000/svg" style="fill-rule:evenodd;clip-rule:evenodd;stroke-linejoin:round;stroke-miterlimit:2;">
    <g>
        <path id="I" d="M149.722,51.976C114.235,51.976 85.402,80.809 85.402,116.295C85.402,131.82 90.947,146.606 100.558,158.066C108.321,166.937 112.387,178.027 112.387,188.747L112.387,190.965C112.387,213.144 99.819,232.366 81.706,242.346C70.616,234.583 63.223,222.015 63.223,207.599L54.721,207.599C54.721,223.124 61.745,236.801 72.834,246.043C66.92,248.261 60.636,249.369 53.982,249.369C42.523,249.369 31.803,244.564 23.671,236.062C15.538,227.56 11.842,216.84 12.581,205.011C14.06,184.311 30.694,167.677 51.395,166.568L51.025,158.066C25.889,159.544 5.927,179.505 4.079,204.642C3.34,218.688 8.145,231.626 17.756,241.976C27.367,252.327 40.305,257.502 53.982,257.502C63.593,257.502 72.834,255.654 81.336,251.957C88.36,255.654 96.492,257.502 104.624,257.502C125.325,257.502 142.698,245.303 150.461,227.93C158.224,245.303 175.597,257.502 196.298,257.502C204.43,257.502 212.562,255.654 219.586,251.957C228.088,255.654 237.329,257.502 246.94,257.502C260.617,257.502 273.924,251.957 283.166,241.976C292.407,231.996 297.582,218.688 296.843,204.642C294.995,179.505 275.033,159.544 249.897,158.066L249.527,166.568C270.228,167.677 286.862,184.311 288.341,205.011C289.08,216.84 285.014,227.56 277.251,236.062C269.489,244.564 258.399,249.369 246.94,249.369C240.286,249.369 234.002,248.261 228.088,246.043C239.177,236.801 246.201,223.124 246.201,207.599L237.699,207.599C237.699,222.015 230.306,234.583 219.216,242.346C201.103,232.366 188.535,213.144 188.535,190.965L188.535,188.747C188.535,178.027 192.601,166.937 200.364,158.066C209.975,146.606 215.52,131.82 215.52,116.295C215.52,80.809 186.687,51.976 151.2,51.976L149.722,51.976ZM90.578,246.782C108.69,234.953 120.889,214.253 120.889,190.965L120.889,188.747C120.889,175.809 116.083,162.871 107.212,152.521C98.34,142.171 93.904,129.603 93.904,116.295C93.904,85.614 118.671,60.478 149.722,60.478L151.2,60.478C182.251,60.478 207.018,85.614 207.018,116.295C207.018,129.603 202.212,142.54 193.71,152.521C185.208,162.501 180.033,175.809 180.033,188.747L180.033,190.965C180.033,214.253 192.232,234.953 210.344,246.782C205.909,248.261 201.103,249.369 196.298,249.369C178.185,249.369 163.029,237.91 157.115,222.015L143.807,222.015C137.893,237.91 122.737,249.369 104.624,249.369C99.819,249.369 95.013,248.261 90.578,246.782Z" style="fill-rule:nonzero;stroke:#000;stroke-width:8.01px;"/>
        <path d="M114.655,112.971C114.655,118.684 119.292,123.321 125.005,123.321C130.718,123.321 135.355,118.684 135.355,112.971C135.355,107.258 130.718,102.621 125.005,102.621C119.292,102.621 114.655,107.258 114.655,112.971Z" style="stroke:#000;stroke-width:5px;"/>
        <path d="M165.566,112.971C165.566,118.684 170.203,123.321 175.916,123.321C181.629,123.321 186.266,118.684 186.266,112.971C186.266,107.258 181.629,102.621 175.916,102.621C170.203,102.621 165.566,107.258 165.566,112.971Z" style="stroke:#000;stroke-width:5px;"/>
        <path d="M57.351,53.279C39.592,79.412 33.67,112.085 41.103,142.921L49.325,140.94C42.45,112.416 47.925,82.198 64.347,58.034C91.825,17.601 144.56,1.631 189.738,20.064C236.97,39.331 263.564,91.296 251.597,140.94L259.819,142.921C272.758,89.248 244.002,33.065 192.933,12.232C179.298,6.67 165.019,4.006 150.883,4.005C114.372,4.002 78.768,21.767 57.351,53.279Z" style="fill-rule:nonzero;stroke:#000;stroke-width:8.01px;"/>
    </g>
</svg>
